<svg width="1600" height="900" viewBox="0 0 1600 900" fill="none" xmlns="http://www.w3.org/2000/svg">
  <rect width="1600" height="900" fill="#F7F8FA"/>

  <g font-family="Outfit, Avenir Next, Arial, sans-serif">
    <text x="96" y="92" fill="#6B7280" font-size="18" font-weight="650">Permission-Aware Context</text>
    <text x="96" y="154" fill="#111827" font-size="54" font-weight="720">Source content becomes derived knowledge.</text>
    <text x="96" y="204" fill="#4B5563" font-size="27" font-weight="400">Access rules have to follow the content through each transformation.</text>

    <line x1="96" y1="270" x2="1504" y2="270" stroke="#D5DAE1" stroke-width="1.5"/>

    <g transform="translate(96 382)">
      <text x="0" y="0" fill="#2563EB" font-size="16" font-weight="750">01</text>
      <text x="0" y="54" fill="#111827" font-size="32" font-weight="720">Source content</text>
      <line x1="0" y1="104" x2="200" y2="104" stroke="#111827" stroke-width="2"/>
    </g>

    <line x1="318" y1="486" x2="374" y2="486" stroke="#A8B0BC" stroke-width="2"/>
    <path d="M374 486 L362 478 L362 494 Z" fill="#A8B0BC"/>

    <g transform="translate(410 382)">
      <text x="0" y="0" fill="#2563EB" font-size="16" font-weight="750">02</text>
      <text x="0" y="54" fill="#111827" font-size="32" font-weight="720">Extracted entity</text>
      <line x1="0" y1="104" x2="200" y2="104" stroke="#111827" stroke-width="2"/>
    </g>

    <line x1="632" y1="486" x2="688" y2="486" stroke="#A8B0BC" stroke-width="2"/>
    <path d="M688 486 L676 478 L676 494 Z" fill="#A8B0BC"/>

    <g transform="translate(724 382)">
      <text x="0" y="0" fill="#2563EB" font-size="16" font-weight="750">03</text>
      <text x="0" y="54" fill="#111827" font-size="32" font-weight="720">Summary</text>
      <line x1="0" y1="104" x2="200" y2="104" stroke="#111827" stroke-width="2"/>
    </g>

    <line x1="946" y1="486" x2="1002" y2="486" stroke="#A8B0BC" stroke-width="2"/>
    <path d="M1002 486 L990 478 L990 494 Z" fill="#A8B0BC"/>

    <g transform="translate(1038 382)">
      <text x="0" y="0" fill="#2563EB" font-size="16" font-weight="750">04</text>
      <text x="0" y="54" fill="#111827" font-size="32" font-weight="720">Answer</text>
      <line x1="0" y1="104" x2="200" y2="104" stroke="#111827" stroke-width="2"/>
    </g>

    <line x1="1260" y1="486" x2="1316" y2="486" stroke="#A8B0BC" stroke-width="2"/>
    <path d="M1316 486 L1304 478 L1304 494 Z" fill="#A8B0BC"/>

    <g transform="translate(1352 382)">
      <text x="0" y="0" fill="#2563EB" font-size="16" font-weight="750">05</text>
      <text x="0" y="54" fill="#111827" font-size="32" font-weight="720">Timeline</text>
      <line x1="0" y1="104" x2="152" y2="104" stroke="#111827" stroke-width="2"/>
    </g>

    <line x1="96" y1="650" x2="1504" y2="650" stroke="#D5DAE1" stroke-width="1.5"/>
    <text x="96" y="716" fill="#111827" font-size="31" font-weight="650">The access rule has to follow the knowledge through every product surface.</text>

    <text x="96" y="824" fill="#6B7280" font-size="18" font-weight="600">Samuel Umoren / AI Backend Notes</text>
  </g>
</svg>
